<?xml version="1.0" encoding="UTF-8"?>
<svg id="Capa_1" data-name="Capa 1" xmlns="http://www.w3.org/2000/svg" viewBox="0 0 320.84 76.42">
  <defs>
    <style>
      .cls-1 {
        fill: #2a2a2a;
      }

      .cls-2 {
        fill: #98d161;
      }
    </style>
  </defs>
  <path class="cls-1" d="M0,75.3V21.27h15.47l.51,10.99-3.26,1.22c.75-2.44,2.09-4.66,4.02-6.67,1.93-2,4.26-3.61,6.97-4.83,2.71-1.22,5.56-1.83,8.55-1.83,4.07,0,7.5.83,10.28,2.49,2.78,1.66,4.88,4.14,6.31,7.43,1.42,3.29,2.14,7.31,2.14,12.06v33.17h-16.38v-31.85c0-2.17-.3-3.97-.92-5.39-.61-1.42-1.54-2.49-2.8-3.2-1.26-.71-2.8-1.03-4.63-.97-1.42,0-2.75.22-3.97.66-1.22.44-2.27,1.09-3.15,1.93-.88.85-1.58,1.82-2.09,2.9-.51,1.09-.76,2.27-.76,3.56v32.36H0Z"/>
  <path class="cls-1" d="M83.54,76.21c-4.55,0-8.6-1.2-12.16-3.61-3.56-2.41-6.39-5.73-8.5-9.97-2.1-4.24-3.15-9.04-3.15-14.4s1.05-10.34,3.15-14.55c2.1-4.21,4.99-7.51,8.65-9.92,3.66-2.41,7.84-3.61,12.52-3.61,2.58,0,4.94.37,7.07,1.12,2.14.75,4.02,1.78,5.65,3.1,1.63,1.32,3.02,2.85,4.17,4.58,1.15,1.73,2,3.58,2.54,5.55l-3.36-.41v-12.82h16.18v54.03h-16.48v-13.02l3.66-.1c-.54,1.9-1.42,3.7-2.65,5.39-1.22,1.7-2.71,3.19-4.48,4.48-1.76,1.29-3.73,2.31-5.9,3.05-2.17.75-4.48,1.12-6.92,1.12ZM88.02,62.48c2.51,0,4.68-.58,6.51-1.73,1.83-1.15,3.26-2.8,4.27-4.94,1.02-2.14,1.53-4.66,1.53-7.58s-.51-5.44-1.53-7.58c-1.02-2.14-2.44-3.8-4.27-4.99-1.83-1.19-4-1.78-6.51-1.78s-4.56.59-6.36,1.78c-1.8,1.19-3.21,2.85-4.22,4.99-1.02,2.14-1.53,4.66-1.53,7.58s.51,5.44,1.53,7.58c1.02,2.14,2.42,3.78,4.22,4.94,1.8,1.15,3.92,1.73,6.36,1.73Z"/>
  <path class="cls-1" d="M150.09,76.42c-4.68,0-8.84-1.2-12.47-3.61-3.63-2.41-6.5-5.73-8.6-9.97-2.1-4.24-3.15-9.07-3.15-14.5s1.05-10.26,3.15-14.5c2.1-4.24,4.99-7.58,8.65-10.02s7.87-3.66,12.62-3.66c2.44,0,4.78.37,7.02,1.12,2.24.75,4.27,1.76,6.11,3.05,1.83,1.29,3.32,2.77,4.48,4.43,1.15,1.66,1.83,3.38,2.03,5.14l-3.87.92V0h16.38v75.3h-15.16l-.92-12.31,3.26.51c-.2,1.7-.86,3.32-1.98,4.88-1.12,1.56-2.56,2.93-4.33,4.12-1.76,1.19-3.78,2.14-6.05,2.85-2.27.71-4.67,1.07-7.17,1.07ZM154.26,62.88c2.51,0,4.68-.61,6.51-1.83,1.83-1.22,3.24-2.92,4.22-5.09.98-2.17,1.48-4.71,1.48-7.63s-.49-5.56-1.48-7.73c-.98-2.17-2.39-3.87-4.22-5.09-1.83-1.22-4-1.83-6.51-1.83s-4.66.61-6.46,1.83c-1.8,1.22-3.21,2.92-4.22,5.09-1.02,2.17-1.53,4.75-1.53,7.73s.51,5.46,1.53,7.63c1.02,2.17,2.42,3.87,4.22,5.09,1.8,1.22,3.95,1.83,6.46,1.83Z"/>
  <path class="cls-2" d="M195.87,75.3v-15.33h12.65V15.6h-12.65V.27h43.62v15.33h-12.75v44.37h12.75v15.33h-43.62Z"/>
  <path class="cls-2" d="M246.24,75.3L275.93.27h15.43l29.48,75.03h-18.44l-14.15-38.05c-.57-1.5-1.14-3.11-1.71-4.82-.57-1.71-1.14-3.48-1.71-5.31-.57-1.82-1.13-3.61-1.66-5.36-.54-1.75-.98-3.38-1.34-4.88l3.22-.11c-.43,1.79-.91,3.54-1.45,5.25s-1.07,3.41-1.61,5.09c-.54,1.68-1.13,3.36-1.77,5.04-.64,1.68-1.25,3.41-1.82,5.2l-14.15,37.94h-18.01ZM260.39,60.94l5.68-13.72h34.51l5.57,13.72h-45.77Z"/>
</svg>